<mxfile host="app.diagrams.net" agent="Mozilla/5.0 (Windows NT 10.0; Win64; x64) AppleWebKit/537.36 (KHTML, like Gecko) Chrome/134.0.0.0 Safari/537.36" version="26.1.3">
  <diagram name="Страница — 1" id="hi3maOYxdtd5-xxtNOdB">
    <mxGraphModel dx="1114" dy="566" grid="1" gridSize="10" guides="1" tooltips="1" connect="1" arrows="1" fold="1" page="1" pageScale="1" pageWidth="827" pageHeight="1169" math="0" shadow="0">
      <root>
        <mxCell id="0" />
        <mxCell id="1" parent="0" />
        <mxCell id="FxxYlGLEtM2QjZ5-GXDw-153" style="edgeStyle=orthogonalEdgeStyle;rounded=0;orthogonalLoop=1;jettySize=auto;html=1;fontSize=14;" edge="1" parent="1" source="FxxYlGLEtM2QjZ5-GXDw-154" target="FxxYlGLEtM2QjZ5-GXDw-156">
          <mxGeometry relative="1" as="geometry">
            <mxPoint x="355" y="110" as="targetPoint" />
          </mxGeometry>
        </mxCell>
        <mxCell id="FxxYlGLEtM2QjZ5-GXDw-154" value="Начало&amp;nbsp;&lt;div&gt;DisplayMenu&lt;/div&gt;" style="rounded=1;whiteSpace=wrap;html=1;fontSize=14;" vertex="1" parent="1">
          <mxGeometry x="295" y="10" width="120" height="60" as="geometry" />
        </mxCell>
        <mxCell id="FxxYlGLEtM2QjZ5-GXDw-155" style="edgeStyle=orthogonalEdgeStyle;rounded=0;orthogonalLoop=1;jettySize=auto;html=1;fontSize=14;" edge="1" parent="1" source="FxxYlGLEtM2QjZ5-GXDw-156">
          <mxGeometry relative="1" as="geometry">
            <mxPoint x="355" y="210" as="targetPoint" />
          </mxGeometry>
        </mxCell>
        <mxCell id="FxxYlGLEtM2QjZ5-GXDw-156" value="Ввести&amp;nbsp;&lt;div&gt;option,&lt;/div&gt;&lt;div&gt;exitProgram&lt;/div&gt;" style="shape=parallelogram;perimeter=parallelogramPerimeter;whiteSpace=wrap;html=1;fixedSize=1;fontSize=14;" vertex="1" parent="1">
          <mxGeometry x="295" y="100" width="120" height="60" as="geometry" />
        </mxCell>
        <mxCell id="FxxYlGLEtM2QjZ5-GXDw-157" style="edgeStyle=orthogonalEdgeStyle;rounded=0;orthogonalLoop=1;jettySize=auto;html=1;fontSize=14;" edge="1" parent="1" source="FxxYlGLEtM2QjZ5-GXDw-158" target="FxxYlGLEtM2QjZ5-GXDw-160">
          <mxGeometry relative="1" as="geometry">
            <mxPoint x="355" y="310" as="targetPoint" />
          </mxGeometry>
        </mxCell>
        <mxCell id="FxxYlGLEtM2QjZ5-GXDw-158" value="Цикл 1&lt;div&gt;ch = 13&lt;/div&gt;" style="strokeWidth=2;html=1;shape=mxgraph.flowchart.loop_limit;whiteSpace=wrap;fontSize=14;" vertex="1" parent="1">
          <mxGeometry x="305" y="210" width="100" height="60" as="geometry" />
        </mxCell>
        <mxCell id="FxxYlGLEtM2QjZ5-GXDw-159" value="" style="edgeStyle=orthogonalEdgeStyle;rounded=0;orthogonalLoop=1;jettySize=auto;html=1;fontSize=14;" edge="1" parent="1" source="FxxYlGLEtM2QjZ5-GXDw-160" target="FxxYlGLEtM2QjZ5-GXDw-162">
          <mxGeometry relative="1" as="geometry" />
        </mxCell>
        <mxCell id="FxxYlGLEtM2QjZ5-GXDw-160" value="clearscreen" style="rounded=0;whiteSpace=wrap;html=1;fontSize=14;" vertex="1" parent="1">
          <mxGeometry x="305" y="310" width="100" height="40" as="geometry" />
        </mxCell>
        <mxCell id="FxxYlGLEtM2QjZ5-GXDw-161" style="edgeStyle=orthogonalEdgeStyle;rounded=0;orthogonalLoop=1;jettySize=auto;html=1;fontSize=14;" edge="1" parent="1" source="FxxYlGLEtM2QjZ5-GXDw-162" target="FxxYlGLEtM2QjZ5-GXDw-167">
          <mxGeometry relative="1" as="geometry">
            <mxPoint x="355" y="490" as="targetPoint" />
          </mxGeometry>
        </mxCell>
        <mxCell id="FxxYlGLEtM2QjZ5-GXDw-162" value="Вывести&amp;nbsp;&lt;div&gt;Выберите действие&amp;nbsp;&lt;/div&gt;" style="shape=parallelogram;perimeter=parallelogramPerimeter;whiteSpace=wrap;html=1;fixedSize=1;fontSize=14;" vertex="1" parent="1">
          <mxGeometry x="275" y="390" width="160" height="60" as="geometry" />
        </mxCell>
        <mxCell id="FxxYlGLEtM2QjZ5-GXDw-163" style="edgeStyle=orthogonalEdgeStyle;rounded=0;orthogonalLoop=1;jettySize=auto;html=1;fontSize=14;" edge="1" parent="1" source="FxxYlGLEtM2QjZ5-GXDw-167">
          <mxGeometry relative="1" as="geometry">
            <mxPoint x="355" y="640" as="targetPoint" />
          </mxGeometry>
        </mxCell>
        <mxCell id="FxxYlGLEtM2QjZ5-GXDw-164" value="True" style="edgeLabel;html=1;align=center;verticalAlign=middle;resizable=0;points=[];fontSize=14;" vertex="1" connectable="0" parent="FxxYlGLEtM2QjZ5-GXDw-163">
          <mxGeometry x="-0.0922" y="2" relative="1" as="geometry">
            <mxPoint as="offset" />
          </mxGeometry>
        </mxCell>
        <mxCell id="FxxYlGLEtM2QjZ5-GXDw-229" style="edgeStyle=orthogonalEdgeStyle;rounded=0;orthogonalLoop=1;jettySize=auto;html=1;" edge="1" parent="1" source="FxxYlGLEtM2QjZ5-GXDw-167">
          <mxGeometry relative="1" as="geometry">
            <mxPoint x="355" y="710" as="targetPoint" />
            <Array as="points">
              <mxPoint x="531" y="530" />
            </Array>
          </mxGeometry>
        </mxCell>
        <mxCell id="FxxYlGLEtM2QjZ5-GXDw-230" value="False" style="edgeLabel;html=1;align=center;verticalAlign=middle;resizable=0;points=[];" vertex="1" connectable="0" parent="FxxYlGLEtM2QjZ5-GXDw-229">
          <mxGeometry x="-0.4964" y="-1" relative="1" as="geometry">
            <mxPoint as="offset" />
          </mxGeometry>
        </mxCell>
        <mxCell id="FxxYlGLEtM2QjZ5-GXDw-167" value="option = 1" style="rhombus;whiteSpace=wrap;html=1;fontSize=14;" vertex="1" parent="1">
          <mxGeometry x="285" y="490" width="140" height="80" as="geometry" />
        </mxCell>
        <mxCell id="FxxYlGLEtM2QjZ5-GXDw-220" style="edgeStyle=orthogonalEdgeStyle;rounded=0;orthogonalLoop=1;jettySize=auto;html=1;entryX=0.605;entryY=-0.043;entryDx=0;entryDy=0;entryPerimeter=0;" edge="1" parent="1" source="FxxYlGLEtM2QjZ5-GXDw-168" target="FxxYlGLEtM2QjZ5-GXDw-170">
          <mxGeometry relative="1" as="geometry">
            <mxPoint x="355" y="720" as="targetPoint" />
          </mxGeometry>
        </mxCell>
        <mxCell id="FxxYlGLEtM2QjZ5-GXDw-168" value="Вывести&amp;nbsp;&lt;div&gt;( -&amp;gt; Вставить элемент)&lt;/div&gt;" style="shape=parallelogram;perimeter=parallelogramPerimeter;whiteSpace=wrap;html=1;fixedSize=1;fontSize=14;" vertex="1" parent="1">
          <mxGeometry x="275" y="640" width="160" height="50" as="geometry" />
        </mxCell>
        <mxCell id="FxxYlGLEtM2QjZ5-GXDw-169" style="edgeStyle=orthogonalEdgeStyle;rounded=0;orthogonalLoop=1;jettySize=auto;html=1;fontSize=14;" edge="1" parent="1" source="FxxYlGLEtM2QjZ5-GXDw-170" target="FxxYlGLEtM2QjZ5-GXDw-175">
          <mxGeometry relative="1" as="geometry" />
        </mxCell>
        <mxCell id="FxxYlGLEtM2QjZ5-GXDw-170" value="Вывести&amp;nbsp;&lt;div&gt;(&lt;span style=&quot;background-color: transparent; color: light-dark(rgb(0, 0, 0), rgb(255, 255, 255));&quot;&gt;Вставить элемент&lt;/span&gt;&lt;span style=&quot;background-color: transparent; color: light-dark(rgb(0, 0, 0), rgb(255, 255, 255));&quot;&gt;)&lt;/span&gt;&lt;/div&gt;" style="shape=parallelogram;perimeter=parallelogramPerimeter;whiteSpace=wrap;html=1;fixedSize=1;fontSize=14;" vertex="1" parent="1">
          <mxGeometry x="255" y="730" width="160" height="60" as="geometry" />
        </mxCell>
        <mxCell id="FxxYlGLEtM2QjZ5-GXDw-171" style="edgeStyle=orthogonalEdgeStyle;rounded=0;orthogonalLoop=1;jettySize=auto;html=1;fontSize=14;" edge="1" parent="1" source="FxxYlGLEtM2QjZ5-GXDw-175">
          <mxGeometry relative="1" as="geometry">
            <mxPoint x="334.5" y="970" as="targetPoint" />
          </mxGeometry>
        </mxCell>
        <mxCell id="FxxYlGLEtM2QjZ5-GXDw-172" value="True" style="edgeLabel;html=1;align=center;verticalAlign=middle;resizable=0;points=[];fontSize=14;" vertex="1" connectable="0" parent="FxxYlGLEtM2QjZ5-GXDw-171">
          <mxGeometry x="-0.0922" y="2" relative="1" as="geometry">
            <mxPoint as="offset" />
          </mxGeometry>
        </mxCell>
        <mxCell id="FxxYlGLEtM2QjZ5-GXDw-173" style="edgeStyle=orthogonalEdgeStyle;rounded=0;orthogonalLoop=1;jettySize=auto;html=1;fontSize=14;" edge="1" parent="1" source="FxxYlGLEtM2QjZ5-GXDw-175" target="FxxYlGLEtM2QjZ5-GXDw-178">
          <mxGeometry relative="1" as="geometry">
            <mxPoint x="334.5" y="1080" as="targetPoint" />
            <Array as="points">
              <mxPoint x="475.5" y="860" />
            </Array>
          </mxGeometry>
        </mxCell>
        <mxCell id="FxxYlGLEtM2QjZ5-GXDw-174" value="False" style="edgeLabel;html=1;align=center;verticalAlign=middle;resizable=0;points=[];fontSize=14;" vertex="1" connectable="0" parent="FxxYlGLEtM2QjZ5-GXDw-173">
          <mxGeometry x="0.051" y="4" relative="1" as="geometry">
            <mxPoint as="offset" />
          </mxGeometry>
        </mxCell>
        <mxCell id="FxxYlGLEtM2QjZ5-GXDw-175" value="option = 2" style="rhombus;whiteSpace=wrap;html=1;fontSize=14;" vertex="1" parent="1">
          <mxGeometry x="264.5" y="820" width="140" height="80" as="geometry" />
        </mxCell>
        <mxCell id="FxxYlGLEtM2QjZ5-GXDw-176" value="Вывести&amp;nbsp;&lt;div&gt;( -&amp;gt; Удалить элемент)&lt;/div&gt;" style="shape=parallelogram;perimeter=parallelogramPerimeter;whiteSpace=wrap;html=1;fixedSize=1;fontSize=14;" vertex="1" parent="1">
          <mxGeometry x="254.5" y="970" width="160" height="60" as="geometry" />
        </mxCell>
        <mxCell id="FxxYlGLEtM2QjZ5-GXDw-177" style="edgeStyle=orthogonalEdgeStyle;rounded=0;orthogonalLoop=1;jettySize=auto;html=1;entryX=0.5;entryY=0;entryDx=0;entryDy=0;fontSize=14;" edge="1" parent="1" source="FxxYlGLEtM2QjZ5-GXDw-178" target="FxxYlGLEtM2QjZ5-GXDw-183">
          <mxGeometry relative="1" as="geometry" />
        </mxCell>
        <mxCell id="FxxYlGLEtM2QjZ5-GXDw-178" value="Вывести&amp;nbsp;&lt;div&gt;(&lt;span style=&quot;background-color: transparent; color: light-dark(rgb(0, 0, 0), rgb(255, 255, 255));&quot;&gt;Удалить элемент&lt;/span&gt;&lt;span style=&quot;background-color: transparent; color: light-dark(rgb(0, 0, 0), rgb(255, 255, 255));&quot;&gt;)&lt;/span&gt;&lt;/div&gt;" style="shape=parallelogram;perimeter=parallelogramPerimeter;whiteSpace=wrap;html=1;fixedSize=1;fontSize=14;" vertex="1" parent="1">
          <mxGeometry x="234.5" y="1060" width="160" height="60" as="geometry" />
        </mxCell>
        <mxCell id="FxxYlGLEtM2QjZ5-GXDw-179" style="edgeStyle=orthogonalEdgeStyle;rounded=0;orthogonalLoop=1;jettySize=auto;html=1;fontSize=14;" edge="1" parent="1" source="FxxYlGLEtM2QjZ5-GXDw-183">
          <mxGeometry relative="1" as="geometry">
            <mxPoint x="325" y="1310" as="targetPoint" />
          </mxGeometry>
        </mxCell>
        <mxCell id="FxxYlGLEtM2QjZ5-GXDw-180" value="True" style="edgeLabel;html=1;align=center;verticalAlign=middle;resizable=0;points=[];fontSize=14;" vertex="1" connectable="0" parent="FxxYlGLEtM2QjZ5-GXDw-179">
          <mxGeometry x="-0.0922" y="2" relative="1" as="geometry">
            <mxPoint as="offset" />
          </mxGeometry>
        </mxCell>
        <mxCell id="FxxYlGLEtM2QjZ5-GXDw-227" style="edgeStyle=orthogonalEdgeStyle;rounded=0;orthogonalLoop=1;jettySize=auto;html=1;" edge="1" parent="1" source="FxxYlGLEtM2QjZ5-GXDw-183">
          <mxGeometry relative="1" as="geometry">
            <mxPoint x="310" y="1480" as="targetPoint" />
            <Array as="points">
              <mxPoint x="470" y="1200" />
              <mxPoint x="470" y="1480" />
            </Array>
          </mxGeometry>
        </mxCell>
        <mxCell id="FxxYlGLEtM2QjZ5-GXDw-228" value="False" style="edgeLabel;html=1;align=center;verticalAlign=middle;resizable=0;points=[];" vertex="1" connectable="0" parent="FxxYlGLEtM2QjZ5-GXDw-227">
          <mxGeometry x="-0.8188" relative="1" as="geometry">
            <mxPoint as="offset" />
          </mxGeometry>
        </mxCell>
        <mxCell id="FxxYlGLEtM2QjZ5-GXDw-183" value="option = 3" style="rhombus;whiteSpace=wrap;html=1;fontSize=14;" vertex="1" parent="1">
          <mxGeometry x="255" y="1160" width="140" height="80" as="geometry" />
        </mxCell>
        <mxCell id="FxxYlGLEtM2QjZ5-GXDw-184" value="Вывести&amp;nbsp;&lt;div&gt;( -&amp;gt; Показать список)&lt;/div&gt;" style="shape=parallelogram;perimeter=parallelogramPerimeter;whiteSpace=wrap;html=1;fixedSize=1;fontSize=14;" vertex="1" parent="1">
          <mxGeometry x="245" y="1310" width="160" height="60" as="geometry" />
        </mxCell>
        <mxCell id="FxxYlGLEtM2QjZ5-GXDw-185" style="edgeStyle=orthogonalEdgeStyle;rounded=0;orthogonalLoop=1;jettySize=auto;html=1;fontSize=14;" edge="1" parent="1" source="FxxYlGLEtM2QjZ5-GXDw-186" target="FxxYlGLEtM2QjZ5-GXDw-188">
          <mxGeometry relative="1" as="geometry">
            <mxPoint x="305" y="1530" as="targetPoint" />
          </mxGeometry>
        </mxCell>
        <mxCell id="FxxYlGLEtM2QjZ5-GXDw-186" value="Вывести&amp;nbsp;&lt;div&gt;(&lt;span style=&quot;background-color: transparent; color: light-dark(rgb(0, 0, 0), rgb(255, 255, 255));&quot;&gt;Показать список&lt;/span&gt;&lt;span style=&quot;background-color: transparent; color: light-dark(rgb(0, 0, 0), rgb(255, 255, 255));&quot;&gt;)&lt;/span&gt;&lt;/div&gt;" style="shape=parallelogram;perimeter=parallelogramPerimeter;whiteSpace=wrap;html=1;fixedSize=1;fontSize=14;" vertex="1" parent="1">
          <mxGeometry x="225" y="1400" width="160" height="60" as="geometry" />
        </mxCell>
        <mxCell id="FxxYlGLEtM2QjZ5-GXDw-187" style="edgeStyle=orthogonalEdgeStyle;rounded=0;orthogonalLoop=1;jettySize=auto;html=1;fontSize=14;" edge="1" parent="1" source="FxxYlGLEtM2QjZ5-GXDw-188" target="FxxYlGLEtM2QjZ5-GXDw-190">
          <mxGeometry relative="1" as="geometry">
            <mxPoint x="305" y="1630" as="targetPoint" />
          </mxGeometry>
        </mxCell>
        <mxCell id="FxxYlGLEtM2QjZ5-GXDw-188" value="Используйте стрелки для перемещения и Enter для выбора." style="shape=parallelogram;perimeter=parallelogramPerimeter;whiteSpace=wrap;html=1;fixedSize=1;fontSize=14;" vertex="1" parent="1">
          <mxGeometry x="210" y="1510" width="190" height="80" as="geometry" />
        </mxCell>
        <mxCell id="FxxYlGLEtM2QjZ5-GXDw-189" style="edgeStyle=orthogonalEdgeStyle;rounded=0;orthogonalLoop=1;jettySize=auto;html=1;fontSize=14;" edge="1" parent="1" source="FxxYlGLEtM2QjZ5-GXDw-190" target="FxxYlGLEtM2QjZ5-GXDw-195">
          <mxGeometry relative="1" as="geometry">
            <mxPoint x="305" y="1720" as="targetPoint" />
          </mxGeometry>
        </mxCell>
        <mxCell id="FxxYlGLEtM2QjZ5-GXDw-190" value="ch = ReadKey" style="rounded=0;whiteSpace=wrap;html=1;fontSize=14;" vertex="1" parent="1">
          <mxGeometry x="245" y="1620" width="120" height="60" as="geometry" />
        </mxCell>
        <mxCell id="FxxYlGLEtM2QjZ5-GXDw-191" style="edgeStyle=orthogonalEdgeStyle;rounded=0;orthogonalLoop=1;jettySize=auto;html=1;fontSize=14;" edge="1" parent="1" source="FxxYlGLEtM2QjZ5-GXDw-195">
          <mxGeometry relative="1" as="geometry">
            <mxPoint x="305" y="1870" as="targetPoint" />
          </mxGeometry>
        </mxCell>
        <mxCell id="FxxYlGLEtM2QjZ5-GXDw-192" value="True" style="edgeLabel;html=1;align=center;verticalAlign=middle;resizable=0;points=[];fontSize=14;" vertex="1" connectable="0" parent="FxxYlGLEtM2QjZ5-GXDw-191">
          <mxGeometry x="-0.1634" y="3" relative="1" as="geometry">
            <mxPoint as="offset" />
          </mxGeometry>
        </mxCell>
        <mxCell id="FxxYlGLEtM2QjZ5-GXDw-193" style="edgeStyle=orthogonalEdgeStyle;rounded=0;orthogonalLoop=1;jettySize=auto;html=1;entryX=0;entryY=0.5;entryDx=0;entryDy=0;fontSize=14;" edge="1" parent="1" source="FxxYlGLEtM2QjZ5-GXDw-195" target="FxxYlGLEtM2QjZ5-GXDw-199">
          <mxGeometry relative="1" as="geometry">
            <mxPoint x="325" y="1970" as="targetPoint" />
            <Array as="points">
              <mxPoint x="426" y="1754" />
              <mxPoint x="426" y="1970" />
              <mxPoint x="315" y="1970" />
            </Array>
          </mxGeometry>
        </mxCell>
        <mxCell id="FxxYlGLEtM2QjZ5-GXDw-194" value="False" style="edgeLabel;html=1;align=center;verticalAlign=middle;resizable=0;points=[];fontSize=14;" vertex="1" connectable="0" parent="FxxYlGLEtM2QjZ5-GXDw-193">
          <mxGeometry x="-0.7259" y="-2" relative="1" as="geometry">
            <mxPoint as="offset" />
          </mxGeometry>
        </mxCell>
        <mxCell id="FxxYlGLEtM2QjZ5-GXDw-195" value="ch = 27" style="rhombus;whiteSpace=wrap;html=1;fontSize=14;" vertex="1" parent="1">
          <mxGeometry x="245" y="1714" width="120" height="80" as="geometry" />
        </mxCell>
        <mxCell id="FxxYlGLEtM2QjZ5-GXDw-219" style="edgeStyle=orthogonalEdgeStyle;rounded=0;orthogonalLoop=1;jettySize=auto;html=1;" edge="1" parent="1" source="FxxYlGLEtM2QjZ5-GXDw-196">
          <mxGeometry relative="1" as="geometry">
            <mxPoint x="305" y="2860" as="targetPoint" />
            <Array as="points">
              <mxPoint x="551" y="1900" />
              <mxPoint x="551" y="2860" />
            </Array>
          </mxGeometry>
        </mxCell>
        <mxCell id="FxxYlGLEtM2QjZ5-GXDw-196" value="ExitProgram = True" style="rounded=0;whiteSpace=wrap;html=1;fontSize=14;" vertex="1" parent="1">
          <mxGeometry x="245" y="1870" width="120" height="60" as="geometry" />
        </mxCell>
        <mxCell id="FxxYlGLEtM2QjZ5-GXDw-197" style="edgeStyle=orthogonalEdgeStyle;rounded=0;orthogonalLoop=1;jettySize=auto;html=1;fontSize=14;" edge="1" parent="1" source="FxxYlGLEtM2QjZ5-GXDw-199" target="FxxYlGLEtM2QjZ5-GXDw-201">
          <mxGeometry relative="1" as="geometry">
            <mxPoint x="315" y="2150" as="targetPoint" />
          </mxGeometry>
        </mxCell>
        <mxCell id="FxxYlGLEtM2QjZ5-GXDw-198" style="edgeStyle=orthogonalEdgeStyle;rounded=0;orthogonalLoop=1;jettySize=auto;html=1;fontSize=14;" edge="1" parent="1" source="FxxYlGLEtM2QjZ5-GXDw-199" target="FxxYlGLEtM2QjZ5-GXDw-213">
          <mxGeometry relative="1" as="geometry">
            <mxPoint x="305" y="2770" as="targetPoint" />
            <Array as="points">
              <mxPoint x="466" y="2055" />
              <mxPoint x="466" y="2750" />
            </Array>
          </mxGeometry>
        </mxCell>
        <mxCell id="FxxYlGLEtM2QjZ5-GXDw-199" value="ch = 0" style="rhombus;whiteSpace=wrap;html=1;direction=south;fontSize=14;" vertex="1" parent="1">
          <mxGeometry x="255" y="2010" width="120" height="90" as="geometry" />
        </mxCell>
        <mxCell id="FxxYlGLEtM2QjZ5-GXDw-200" style="edgeStyle=orthogonalEdgeStyle;rounded=0;orthogonalLoop=1;jettySize=auto;html=1;fontSize=14;" edge="1" parent="1" source="FxxYlGLEtM2QjZ5-GXDw-201" target="FxxYlGLEtM2QjZ5-GXDw-205">
          <mxGeometry relative="1" as="geometry">
            <mxPoint x="315" y="2240" as="targetPoint" />
          </mxGeometry>
        </mxCell>
        <mxCell id="FxxYlGLEtM2QjZ5-GXDw-201" value="ch = readkey" style="rounded=0;whiteSpace=wrap;html=1;fontSize=14;" vertex="1" parent="1">
          <mxGeometry x="255" y="2130" width="120" height="60" as="geometry" />
        </mxCell>
        <mxCell id="FxxYlGLEtM2QjZ5-GXDw-202" style="edgeStyle=orthogonalEdgeStyle;rounded=0;orthogonalLoop=1;jettySize=auto;html=1;fontSize=14;" edge="1" parent="1" source="FxxYlGLEtM2QjZ5-GXDw-205" target="FxxYlGLEtM2QjZ5-GXDw-206">
          <mxGeometry relative="1" as="geometry">
            <mxPoint x="314.5" y="2360" as="targetPoint" />
          </mxGeometry>
        </mxCell>
        <mxCell id="FxxYlGLEtM2QjZ5-GXDw-203" value="True" style="edgeLabel;html=1;align=center;verticalAlign=middle;resizable=0;points=[];fontSize=14;" vertex="1" connectable="0" parent="FxxYlGLEtM2QjZ5-GXDw-202">
          <mxGeometry x="-0.4059" y="2" relative="1" as="geometry">
            <mxPoint as="offset" />
          </mxGeometry>
        </mxCell>
        <mxCell id="FxxYlGLEtM2QjZ5-GXDw-204" style="edgeStyle=orthogonalEdgeStyle;rounded=0;orthogonalLoop=1;jettySize=auto;html=1;entryX=0;entryY=0.5;entryDx=0;entryDy=0;fontSize=14;" edge="1" parent="1" source="FxxYlGLEtM2QjZ5-GXDw-205" target="FxxYlGLEtM2QjZ5-GXDw-210">
          <mxGeometry relative="1" as="geometry">
            <mxPoint x="345" y="2470" as="targetPoint" />
            <Array as="points">
              <mxPoint x="406" y="2260" />
              <mxPoint x="406" y="2470" />
            </Array>
          </mxGeometry>
        </mxCell>
        <mxCell id="FxxYlGLEtM2QjZ5-GXDw-216" value="False" style="edgeLabel;html=1;align=center;verticalAlign=middle;resizable=0;points=[];" vertex="1" connectable="0" parent="FxxYlGLEtM2QjZ5-GXDw-204">
          <mxGeometry x="-0.8338" y="4" relative="1" as="geometry">
            <mxPoint as="offset" />
          </mxGeometry>
        </mxCell>
        <mxCell id="FxxYlGLEtM2QjZ5-GXDw-205" value="option &amp;gt;1" style="rhombus;whiteSpace=wrap;html=1;fontSize=14;" vertex="1" parent="1">
          <mxGeometry x="274.5" y="2220" width="80" height="80" as="geometry" />
        </mxCell>
        <mxCell id="FxxYlGLEtM2QjZ5-GXDw-215" style="edgeStyle=orthogonalEdgeStyle;rounded=0;orthogonalLoop=1;jettySize=auto;html=1;" edge="1" parent="1" source="FxxYlGLEtM2QjZ5-GXDw-206">
          <mxGeometry relative="1" as="geometry">
            <mxPoint x="340" y="2470" as="targetPoint" />
          </mxGeometry>
        </mxCell>
        <mxCell id="FxxYlGLEtM2QjZ5-GXDw-206" value="option=1" style="rounded=0;whiteSpace=wrap;html=1;fontSize=14;" vertex="1" parent="1">
          <mxGeometry x="255" y="2350" width="120" height="60" as="geometry" />
        </mxCell>
        <mxCell id="FxxYlGLEtM2QjZ5-GXDw-207" style="edgeStyle=orthogonalEdgeStyle;rounded=0;orthogonalLoop=1;jettySize=auto;html=1;fontSize=14;" edge="1" parent="1" source="FxxYlGLEtM2QjZ5-GXDw-210" target="FxxYlGLEtM2QjZ5-GXDw-211">
          <mxGeometry relative="1" as="geometry">
            <mxPoint x="315" y="2630" as="targetPoint" />
          </mxGeometry>
        </mxCell>
        <mxCell id="FxxYlGLEtM2QjZ5-GXDw-208" style="edgeStyle=orthogonalEdgeStyle;rounded=0;orthogonalLoop=1;jettySize=auto;html=1;fontSize=14;" edge="1" parent="1" source="FxxYlGLEtM2QjZ5-GXDw-210">
          <mxGeometry relative="1" as="geometry">
            <mxPoint x="345" y="2750" as="targetPoint" />
            <Array as="points">
              <mxPoint x="396" y="2535" />
              <mxPoint x="396" y="2710" />
            </Array>
          </mxGeometry>
        </mxCell>
        <mxCell id="FxxYlGLEtM2QjZ5-GXDw-209" value="False" style="edgeLabel;html=1;align=center;verticalAlign=middle;resizable=0;points=[];fontSize=14;" vertex="1" connectable="0" parent="FxxYlGLEtM2QjZ5-GXDw-208">
          <mxGeometry x="-0.128" y="1" relative="1" as="geometry">
            <mxPoint as="offset" />
          </mxGeometry>
        </mxCell>
        <mxCell id="FxxYlGLEtM2QjZ5-GXDw-210" value="option&amp;gt;3" style="rhombus;whiteSpace=wrap;html=1;direction=south;fontSize=14;" vertex="1" parent="1">
          <mxGeometry x="270" y="2490" width="90" height="90" as="geometry" />
        </mxCell>
        <mxCell id="FxxYlGLEtM2QjZ5-GXDw-217" style="edgeStyle=orthogonalEdgeStyle;rounded=0;orthogonalLoop=1;jettySize=auto;html=1;" edge="1" parent="1" source="FxxYlGLEtM2QjZ5-GXDw-211">
          <mxGeometry relative="1" as="geometry">
            <mxPoint x="315" y="2750" as="targetPoint" />
          </mxGeometry>
        </mxCell>
        <mxCell id="FxxYlGLEtM2QjZ5-GXDw-218" value="False" style="edgeLabel;html=1;align=center;verticalAlign=middle;resizable=0;points=[];" vertex="1" connectable="0" parent="FxxYlGLEtM2QjZ5-GXDw-217">
          <mxGeometry x="0.2237" y="-5" relative="1" as="geometry">
            <mxPoint as="offset" />
          </mxGeometry>
        </mxCell>
        <mxCell id="FxxYlGLEtM2QjZ5-GXDw-211" value="option+=1" style="rounded=0;whiteSpace=wrap;html=1;fontSize=14;" vertex="1" parent="1">
          <mxGeometry x="255" y="2610" width="120" height="60" as="geometry" />
        </mxCell>
        <mxCell id="FxxYlGLEtM2QjZ5-GXDw-212" style="edgeStyle=orthogonalEdgeStyle;rounded=0;orthogonalLoop=1;jettySize=auto;html=1;fontSize=14;" edge="1" parent="1" source="FxxYlGLEtM2QjZ5-GXDw-213" target="FxxYlGLEtM2QjZ5-GXDw-214">
          <mxGeometry relative="1" as="geometry">
            <mxPoint x="305" y="2890" as="targetPoint" />
          </mxGeometry>
        </mxCell>
        <mxCell id="FxxYlGLEtM2QjZ5-GXDw-213" value="Цикл 1" style="strokeWidth=2;html=1;shape=mxgraph.flowchart.loop_limit;whiteSpace=wrap;direction=west;fontSize=14;" vertex="1" parent="1">
          <mxGeometry x="255" y="2780" width="100" height="60" as="geometry" />
        </mxCell>
        <mxCell id="FxxYlGLEtM2QjZ5-GXDw-214" value="Конец&amp;nbsp;&lt;div&gt;DisplayMenu&lt;/div&gt;" style="rounded=1;whiteSpace=wrap;html=1;fontSize=14;" vertex="1" parent="1">
          <mxGeometry x="245" y="2880" width="120" height="60" as="geometry" />
        </mxCell>
        <mxCell id="FxxYlGLEtM2QjZ5-GXDw-225" style="edgeStyle=orthogonalEdgeStyle;rounded=0;orthogonalLoop=1;jettySize=auto;html=1;entryX=0.643;entryY=-0.04;entryDx=0;entryDy=0;entryPerimeter=0;" edge="1" parent="1" source="FxxYlGLEtM2QjZ5-GXDw-184" target="FxxYlGLEtM2QjZ5-GXDw-186">
          <mxGeometry relative="1" as="geometry" />
        </mxCell>
      </root>
    </mxGraphModel>
  </diagram>
</mxfile>
